<?xml version="1.0" encoding="UTF-8" standalone="no"?>
<svg
   xmlns:dc="http://purl.org/dc/elements/1.1/"
   xmlns:cc="http://creativecommons.org/ns#"
   xmlns:rdf="http://www.w3.org/1999/02/22-rdf-syntax-ns#"
   xmlns:svg="http://www.w3.org/2000/svg"
   xmlns="http://www.w3.org/2000/svg"
   xmlns:xlink="http://www.w3.org/1999/xlink"
   xmlns:sodipodi="http://sodipodi.sourceforge.net/DTD/sodipodi-0.dtd"
   xmlns:inkscape="http://www.inkscape.org/namespaces/inkscape"
   width="48"
   height="48"
   version="1.1"
   id="svg64"
   sodipodi:docname="vlc.svg"
   inkscape:version="1.0.2 (e86c870879, 2021-01-15)">
  <metadata
     id="metadata68">
    <rdf:RDF>
      <cc:Work
         rdf:about="">
        <dc:format>image/svg+xml</dc:format>
        <dc:type
           rdf:resource="http://purl.org/dc/dcmitype/StillImage" />
      </cc:Work>
    </rdf:RDF>
  </metadata>
  <sodipodi:namedview
     pagecolor="#ffffff"
     bordercolor="#666666"
     borderopacity="1"
     objecttolerance="10"
     gridtolerance="10"
     guidetolerance="10"
     inkscape:pageopacity="0"
     inkscape:pageshadow="2"
     inkscape:window-width="1920"
     inkscape:window-height="1060"
     id="namedview66"
     showgrid="false"
     inkscape:zoom="10.532945"
     inkscape:cx="24.458821"
     inkscape:cy="31.609121"
     inkscape:window-x="0"
     inkscape:window-y="20"
     inkscape:window-maximized="1"
     inkscape:current-layer="svg64" />
  <defs
     id="defs38">
    <linearGradient
       id="linearGradient4660">
      <stop
         style="stop-color:#ec4c21;stop-opacity:1"
         offset="0"
         id="stop2" />
      <stop
         style="stop-color:#ec7b0f;stop-opacity:1"
         offset="1"
         id="stop4" />
    </linearGradient>
    <linearGradient
       id="linearGradient4276">
      <stop
         style="stop-color:#afb8be;stop-opacity:1"
         offset="0"
         id="stop7" />
      <stop
         style="stop-color:#e0e5e7;stop-opacity:1"
         offset="1"
         id="stop9" />
    </linearGradient>
    <linearGradient
       id="linearGradient4159">
      <stop
         style="stop-color:#1d1e1e;stop-opacity:1"
         offset="0"
         id="stop12" />
      <stop
         style="stop-color:#44484c;stop-opacity:1"
         offset="1"
         id="stop14" />
    </linearGradient>
    <linearGradient
       xlink:href="#linearGradient4159"
       id="linearGradient4165"
       x1="409.571"
       y1="543.798"
       x2="409.571"
       y2="503.798"
       gradientUnits="userSpaceOnUse"
       gradientTransform="matrix(0.90000002,0,0,0.90000002,40.857114,52.379784)" />
    <linearGradient
       id="linearGradient4303">
      <stop
         offset="0"
         style="stop-color:#c6cdd1;stop-opacity:1"
         id="stop18" />
      <stop
         offset="1"
         style="stop-color:#e0e5e7;stop-opacity:1"
         id="stop20" />
    </linearGradient>
    <linearGradient
       xlink:href="#linearGradient4303"
       id="linearGradient4262"
       x1="25"
       y1="44"
       x2="25"
       y2="4"
       gradientUnits="userSpaceOnUse" />
    <linearGradient
       xlink:href="#linearGradient4276"
       id="linearGradient4274"
       x1="400.571"
       y1="539.798"
       x2="400.571"
       y2="536.798"
       gradientUnits="userSpaceOnUse" />
    <linearGradient
       xlink:href="#linearGradient4660"
       id="linearGradient4658"
       x1="409.571"
       y1="531.798"
       x2="409.571"
       y2="515.798"
       gradientUnits="userSpaceOnUse"
       gradientTransform="matrix(0.75000094,0,0,0.9375,102.14246,31.237407)" />
    <linearGradient
       id="linearGradient4221">
      <stop
         offset="0"
         style="stop-color:#06a370;stop-opacity:1"
         id="stop26" />
      <stop
         offset="1"
         style="stop-color:#1eba9d;stop-opacity:1"
         id="stop28" />
    </linearGradient>
    <linearGradient
       xlink:href="#linearGradient4221"
       id="linearGradient4760"
       x1="424.571"
       y1="541.798"
       x2="424.571"
       y2="539.798"
       gradientUnits="userSpaceOnUse" />
    <linearGradient
       id="linearGradient4400">
      <stop
         offset="0"
         style="stop-color:#020303;stop-opacity:1"
         id="stop32" />
      <stop
         offset="1"
         style="stop-color:#424649;stop-opacity:0"
         id="stop34" />
    </linearGradient>
    <linearGradient
       xlink:href="#linearGradient4400"
       id="linearGradient4238"
       x1="399.571"
       y1="521.798"
       x2="419.571"
       y2="541.798"
       gradientUnits="userSpaceOnUse" />
    <linearGradient
       inkscape:collect="always"
       xlink:href="#linearGradient4272"
       id="linearGradient86"
       gradientUnits="userSpaceOnUse"
       gradientTransform="matrix(0.7,0,0,0.7,33.812017,1018.8622)"
       x1="31.459927"
       y1="32.021351"
       x2="15.496239"
       y2="6.7649956" />
    <linearGradient
       id="linearGradient4272"
       inkscape:collect="always">
      <stop
         id="stop4274"
         offset="0"
         style="stop-color:#fb7600;stop-opacity:1" />
      <stop
         id="stop4276"
         offset="1"
         style="stop-color:#ffb00f;stop-opacity:1" />
    </linearGradient>
  </defs>
  <g
     id="g128"
     transform="matrix(3.0773546,0,0,3.0049881,-131.75113,-3078.7136)">
    <path
       style="fill:#ffffff;stroke:none;stroke-width:1px;stroke-linecap:butt;stroke-linejoin:miter;stroke-opacity:1"
       d="m 49.377121,1027.6151 -2.409001,7.6218 3.813243,2.4896 c 0,0 3.416017,-2.5286 3.369508,-2.6292 -0.04651,-0.1006 -2.375991,-7.5795 -2.375991,-7.5795 z"
       id="path96" />
    <path
       inkscape:connector-curvature="0"
       id="path76"
       d="m 44.955241,1039.169 c -0.135938,-0.032 -0.270697,-0.1411 -0.330585,-0.2672 -0.06719,-0.1416 -0.06586,-0.1737 0.02169,-0.5237 0.294384,-1.1769 0.714899,-2.6009 1.086708,-3.6801 0.128441,-0.3728 0.165304,-0.4528 0.238396,-0.517 0.131053,-0.115 0.28458,-0.1444 0.824146,-0.1579 l 0.39863,-0.01 0.02069,-0.064 c 0.03451,-0.1065 1.624276,-5.2514 2.049579,-6.633 0.169258,-0.5498 0.322959,-1.0319 0.341557,-1.0712 0.108923,-0.2302 0.328837,-0.3344 0.779944,-0.3696 0.162168,-0.013 0.264637,-0.013 0.4375,-4e-4 0.466468,0.033 0.679974,0.1361 0.7954,0.3825 0.02579,0.055 0.162395,0.4719 0.303577,0.9264 0.216681,0.6976 1.932266,6.2353 2.069664,6.6806 l 0.04499,0.1459 0.381057,0.01 c 0.52682,0.014 0.69067,0.047 0.823591,0.1635 0.120766,0.106 0.154641,0.1826 0.34684,0.7845 0.283743,0.8886 0.629471,2.0768 0.967802,3.3264 0.108413,0.4004 0.109731,0.4139 0.05468,0.561 -0.03867,0.1034 -0.151886,0.2259 -0.258692,0.28 l -0.08094,0.041 h -5.631963 c -3.251634,0 -5.654066,0 -5.684261,-0.01 z m 6.100931,-3.1659 c 1.164571,-0.06 1.995056,-0.3215 2.479561,-0.7801 0.168651,-0.1597 0.339892,-0.429 0.339892,-0.5346 0,-0.024 -0.551653,-2.0007 -0.563844,-2.0204 -0.01361,-0.022 -0.03266,-0.012 -0.05374,0.029 -0.0356,0.069 -0.168267,0.2018 -0.274476,0.2751 -0.204912,0.1413 -0.473497,0.2541 -0.801667,0.3367 -0.784467,0.1974 -2.041034,0.2182 -2.873358,0.047 -0.595099,-0.122 -1.071154,-0.3502 -1.297042,-0.6216 -0.03907,-0.047 -0.07725,-0.085 -0.08486,-0.085 -0.0076,0 -0.147348,0.4594 -0.31054,1.0209 l -0.296709,1.0208 0.0297,0.093 c 0.127545,0.4007 0.587256,0.7633 1.227905,0.9685 0.641689,0.2057 1.556714,0.298 2.479176,0.2503 z m 0.23488,-5.3531 c 0.51739,-0.065 0.936942,-0.2049 1.172839,-0.3907 0.07119,-0.056 0.08039,-0.069 0.07378,-0.1018 -0.01273,-0.064 -0.706558,-2.2713 -0.717689,-2.2836 -0.0057,-0.01 -0.04189,0 -0.08034,0.024 -0.09393,0.048 -0.23939,0.087 -0.432913,0.116 -0.232436,0.035 -1.196804,0.035 -1.429827,0 -0.202477,-0.031 -0.323824,-0.061 -0.410797,-0.1017 -0.03807,-0.018 -0.07327,-0.028 -0.07822,-0.023 -0.01217,0.014 -0.692841,2.299 -0.692841,2.3264 0,0.012 0.04333,0.051 0.0963,0.086 0.294963,0.1961 0.775329,0.3234 1.410653,0.3739 0.165137,0.013 0.923614,0 1.08905,-0.025 z"
       style="fill:url(#linearGradient86);fill-opacity:1" />
    <path
       inkscape:connector-curvature="0"
       style="opacity:0.309;fill:#ffffff;fill-opacity:1"
       d="m 50.823931,1025.8745 c -0.172863,-0.012 -0.275332,-0.011 -0.4375,0 -0.451107,0.035 -0.67174,0.1389 -0.780664,0.3691 -0.0186,0.039 -0.172538,0.5221 -0.341797,1.0719 -0.425302,1.3816 -2.014904,6.5257 -2.049414,6.6322 l -0.02051,0.064 -0.397852,0.01 c -0.539566,0.014 -0.693361,0.044 -0.824414,0.1586 -0.07309,0.064 -0.110817,0.144 -0.239258,0.5168 -0.371808,1.0792 -0.791162,2.5023 -1.085547,3.6791 -0.07133,0.2852 -0.07322,0.3624 -0.03965,0.4567 0.01135,-0.058 0.01469,-0.094 0.03965,-0.1942 0.294385,-1.1768 0.713739,-2.5999 1.085547,-3.6791 0.128441,-0.3728 0.166165,-0.4526 0.239258,-0.5168 0.131053,-0.115 0.284848,-0.1451 0.824414,-0.1586 l 0.397852,-0.01 0.02051,-0.064 c 0.03451,-0.1065 1.624112,-5.2506 2.049414,-6.6322 0.169259,-0.5498 0.323199,-1.0326 0.341797,-1.0719 0.108924,-0.2302 0.329557,-0.334 0.780664,-0.3691 0.162168,-0.013 0.264637,-0.014 0.4375,0 0.466468,0.033 0.67891,0.1364 0.794336,0.3828 0.02579,0.055 0.163701,0.4725 0.304883,0.927 0.216681,0.6975 1.931156,6.2347 2.068555,6.68 l 0.04511,0.1463 0.381445,0.01 c 0.52682,0.014 0.690126,0.047 0.823047,0.1641 0.120766,0.106 0.155068,0.1829 0.347266,0.7847 0.283743,0.8886 0.629639,2.0768 0.967969,3.3264 0.03758,0.1388 0.04757,0.1923 0.06152,0.2598 0.03851,-0.1123 0.03574,-0.1631 -0.06152,-0.5223 -0.338328,-1.2495 -0.684223,-2.4378 -0.967967,-3.3264 -0.192198,-0.6018 -0.2265,-0.6787 -0.347266,-0.7847 -0.132921,-0.1167 -0.296227,-0.1498 -0.823047,-0.1641 l -0.381445,-0.01 -0.04511,-0.1462 c -0.137401,-0.4454 -1.851876,-5.9826 -2.068557,-6.6801 -0.141182,-0.4545 -0.279095,-0.8719 -0.304883,-0.927 -0.115426,-0.2464 -0.327868,-0.3494 -0.794336,-0.3828 z m 1.657031,4.3695 c -0.0071,0.01 -0.0074,0.01 -0.01641,0.015 -0.235898,0.1858 -0.655657,0.3259 -1.173046,0.391 -0.165436,0.021 -0.924513,0.038 -1.089649,0.025 -0.635324,-0.051 -1.115974,-0.1772 -1.410937,-0.3732 -0.01873,-0.013 -0.01935,-0.018 -0.03418,-0.03 -0.0098,0.035 -0.06152,0.204 -0.06152,0.2064 0,0.012 0.04274,0.051 0.0957,0.086 0.294963,0.196 0.775614,0.3227 1.410937,0.3732 0.165137,0.013 0.924213,0 1.089649,-0.025 0.51739,-0.065 0.937149,-0.2052 1.173047,-0.391 0.07119,-0.056 0.07906,-0.068 0.07246,-0.1012 -9.8e-4,0 -0.04757,-0.1478 -0.05606,-0.1764 z m 1.349414,4.5473 c -0.05059,0.1282 -0.161883,0.3057 -0.295312,0.432 -0.484505,0.4587 -1.31414,0.7191 -2.478711,0.7793 -0.922461,0.048 -1.837022,-0.044 -2.478711,-0.2502 -0.627,-0.2009 -1.076816,-0.5529 -1.21543,-0.9433 l -0.04238,0.1449 0.02871,0.093 c 0.127546,0.4006 0.588453,0.7626 1.229102,0.9679 0.641688,0.2057 1.556249,0.2979 2.478711,0.2502 1.164571,-0.06 1.994205,-0.3206 2.47871,-0.7793 0.168651,-0.1596 0.34043,-0.4289 0.34043,-0.5345 0,0 -0.03873,-0.1355 -0.04511,-0.16 z"
       id="path84" />
  </g>
</svg>
