<?xml version="1.0" encoding="UTF-8" standalone="no"?>
<svg
   xmlns:dc="http://purl.org/dc/elements/1.1/"
   xmlns:cc="http://creativecommons.org/ns#"
   xmlns:rdf="http://www.w3.org/1999/02/22-rdf-syntax-ns#"
   xmlns:svg="http://www.w3.org/2000/svg"
   xmlns="http://www.w3.org/2000/svg"
   xmlns:xlink="http://www.w3.org/1999/xlink"
   xmlns:sodipodi="http://sodipodi.sourceforge.net/DTD/sodipodi-0.dtd"
   xmlns:inkscape="http://www.inkscape.org/namespaces/inkscape"
   width="32"
   height="32"
   viewBox="0 0 8.4666665 8.4666669"
   version="1.1"
   id="svg69"
   inkscape:version="1.0.2 (e86c870879, 2021-01-15)"
   sodipodi:docname="vlc.svg">
  <defs
     id="defs63">
    <linearGradient
       inkscape:collect="always"
       xlink:href="#linearGradient4272"
       id="linearGradient86"
       gradientUnits="userSpaceOnUse"
       gradientTransform="matrix(0.39896618,0,0,0.38958419,-3.7677349,-1.1035775)"
       x1="31.459927"
       y1="32.021351"
       x2="15.496239"
       y2="6.7649956" />
    <linearGradient
       id="linearGradient4272"
       inkscape:collect="always">
      <stop
         id="stop4274"
         offset="0"
         style="stop-color:#fb7600;stop-opacity:1" />
      <stop
         id="stop4276"
         offset="1"
         style="stop-color:#ffb00f;stop-opacity:1" />
    </linearGradient>
  </defs>
  <sodipodi:namedview
     id="base"
     pagecolor="#ffffff"
     bordercolor="#666666"
     borderopacity="1.0"
     inkscape:pageopacity="0.0"
     inkscape:pageshadow="2"
     inkscape:zoom="7.9195959"
     inkscape:cx="22.251302"
     inkscape:cy="43.906688"
     inkscape:document-units="mm"
     inkscape:current-layer="layer1"
     inkscape:document-rotation="0"
     showgrid="false"
     units="px"
     inkscape:window-width="1342"
     inkscape:window-height="881"
     inkscape:window-x="241"
     inkscape:window-y="80"
     inkscape:window-maximized="0" />
  <metadata
     id="metadata66">
    <rdf:RDF>
      <cc:Work
         rdf:about="">
        <dc:format>image/svg+xml</dc:format>
        <dc:type
           rdf:resource="http://purl.org/dc/dcmitype/StillImage" />
        <dc:title></dc:title>
      </cc:Work>
    </rdf:RDF>
  </metadata>
  <g
     inkscape:label="Layer 1"
     inkscape:groupmode="layer"
     id="layer1">
    <g
       id="g146"
       transform="translate(-1.5741209,-2.2649315)">
      <path
         style="fill:#ffffff;stroke:none;stroke-width:0.563211px;stroke-linecap:butt;stroke-linejoin:miter;stroke-opacity:1"
         d="M 5.1036224,3.7678249 3.7306083,8.0097307 5.9039727,9.3953271 c 0,0 1.9469647,-1.4072922 1.9204567,-1.4632781 -0.026508,-0.055986 -1.3542,-4.2183578 -1.3542,-4.2183578 z"
         id="path96" />
      <path
         inkscape:connector-curvature="0"
         id="path76"
         d="M 2.5833645,10.198152 C 2.5058864,10.180425 2.4290802,10.119624 2.394947,10.04943 2.3566519,9.9706371 2.35741,9.9527513 2.4073091,9.757965 2.5750937,9.1029626 2.814767,8.3104296 3.0266802,7.7098255 3.0998853,7.5023392 3.1208955,7.4578099 3.1625544,7.4220647 3.2372483,7.358062 3.3247512,7.3417107 3.6322778,7.3341965 l 0.2271998,-0.00556 0.011792,-0.035613 C 3.890939,7.2337342 4.7970288,4.3703605 5.0394308,3.6014285 5.1358997,3.2954378 5.2235019,3.0271239 5.2341019,3.0052428 5.2961827,2.8771316 5.421523,2.8191349 5.6786324,2.7995558 c 0.092428,-0.00714 0.1508302,-0.00714 0.2493536,-2.382e-4 0.2658645,0.018521 0.3875524,0.07575 0.4533397,0.2128838 0.0147,0.030612 0.092557,0.2626519 0.1730243,0.5155935 0.1234977,0.3882496 1.1012982,3.4702485 1.1796085,3.7180837 l 0.025641,0.081201 0.217184,0.00556 c 0.3002619,0.00794 0.3936487,0.026194 0.4694071,0.09099 0.068831,0.059002 0.088138,0.1016265 0.1976821,0.4366154 0.1617197,0.4945592 0.3587681,1.1558587 0.5516004,1.851316 0.06179,0.2228321 0.062541,0.2303463 0.031165,0.312208 -0.02204,0.05755 -0.086568,0.12573 -0.1474419,0.15584 l -0.046132,0.02275 H 5.8231187 c -1.8532743,0 -3.2225445,0 -3.2397542,-0.0056 z m 3.477236,-1.7619924 c 0.6637493,-0.03339 1.1370855,-0.1789377 1.41323,-0.4341547 0.096123,-0.088874 0.1937221,-0.23876 0.1937221,-0.297524 0,-0.013494 -0.3144157,-1.1134989 -0.321364,-1.1244527 -0.00776,-0.012171 -0.018613,-0.00661 -0.030629,0.01614 -0.020291,0.038391 -0.095904,0.1123156 -0.156438,0.1530879 C 7.0423314,6.8279163 6.8892509,6.8906755 6.70221,6.9366601 6.2551015,7.0465151 5.5389191,7.0581038 5.0645347,6.9628538 4.7253569,6.8949617 4.4540285,6.7679618 4.3252833,6.6169111 4.303016,6.5907174 4.2812546,6.5696036 4.2769172,6.5696036 c -0.00433,0 -0.083981,0.2556934 -0.1769928,0.5681927 l -0.1691098,0.5681134 0.016927,0.051753 C 4.0204366,7.9806794 4.2824497,8.1824771 4.6475887,8.2966978 5.0133204,8.411183 5.5348406,8.4625386 6.0605994,8.4360009 Z M 6.1944706,5.4568984 C 6.489358,5.4207299 6.7284824,5.342863 6.8629322,5.2394639 c 0.040575,-0.031168 0.045818,-0.038417 0.042051,-0.056647 -0.00725,-0.035639 -0.4027037,-1.2640998 -0.4090479,-1.2709525 -0.00325,-0.00556 -0.023876,0 -0.04579,0.013494 -0.053536,0.026723 -0.1364409,0.048419 -0.2467396,0.064558 -0.1324774,0.019579 -0.6821204,0.019579 -0.8149323,0 -0.1154022,-0.017198 -0.1845641,-0.033946 -0.2341345,-0.056594 -0.021698,-0.010054 -0.04176,-0.01561 -0.044581,-0.0127 -0.00694,0.00767 -0.3948862,1.2794985 -0.3948862,1.294765 0,0.00661 0.024696,0.028363 0.054887,0.047863 0.1681147,0.1091406 0.4419,0.1799696 0.804004,0.2080948 0.09412,0.00714 0.5264155,0 0.6207061,-0.014023 z"
         style="fill:url(#linearGradient86);fill-opacity:1;stroke-width:0.563211" />
      <path
         inkscape:connector-curvature="0"
         style="opacity:0.309;fill:#ffffff;fill-opacity:1;stroke-width:0.563211"
         d="m 5.9282342,2.799106 c -0.098523,-0.00661 -0.1569257,-0.00609 -0.2493537,0 C 5.4217712,2.818685 5.2960211,2.876417 5.2339398,3.0045285 5.2233378,3.0262245 5.1356018,3.2950939 5.0391318,3.6010845 4.7967304,4.3700166 3.8907339,7.232967 3.8710649,7.2922336 l -0.01169,0.035613 -0.2267564,0.00556 c -0.3075264,0.00767 -0.3951821,0.024338 -0.469876,0.088261 -0.041658,0.035613 -0.06316,0.080142 -0.1363655,0.2876285 C 2.8144644,8.3099269 2.5754528,9.1019307 2.4076676,9.7568803 2.367013,9.9156038 2.3659358,9.9585721 2.385069,10.011065 2.3915381,9.9787863 2.3934415,9.9587573 2.4076676,9.9029832 2.5754528,9.2480336 2.8144644,8.4560034 3.026377,7.8553728 3.0995821,7.6478865 3.121083,7.6034894 3.1627425,7.5677442 3.2374364,7.5037415 3.3250921,7.4869934 3.6326187,7.4794792 l 0.2267564,-0.00556 0.01169,-0.035613 C 3.890734,7.379017 4.7967304,4.516093 5.0391318,3.747161 5.1356013,3.4411703 5.2233398,3.1724595 5.2339398,3.1506049 5.2960211,3.0224672 5.4217712,2.9647087 5.6788805,2.9451824 c 0.092428,-0.00714 0.1508303,-0.00767 0.2493537,0 0.2658644,0.018256 0.386946,0.075909 0.4527333,0.2130425 0.0147,0.030612 0.093302,0.2629694 0.1737685,0.5159111 0.1234977,0.3881966 1.1006656,3.469931 1.1789765,3.7177397 l 0.025709,0.081439 0.2174052,0.00556 c 0.3002619,0.00767 0.3933386,0.026194 0.469097,0.091334 0.068831,0.059002 0.088381,0.1017852 0.1979248,0.4367212 0.1617199,0.4945592 0.3588639,1.1558323 0.5516956,1.851316 0.021418,0.077232 0.027113,0.107024 0.035063,0.1445951 C 9.2525571,9.94032 9.2509771,9.912062 9.1955441,9.712143 9.0027139,9.0167348 8.8055705,8.3553824 8.6438503,7.8608232 8.5343067,7.5259136 8.5147561,7.483104 8.4459253,7.424102 8.3701669,7.3591732 8.2770902,7.3407317 7.9768283,7.3327678 l -0.2174052,-0.00556 -0.02571,-0.081359 C 7.6554016,6.997964 6.6782337,3.9162297 6.554736,3.528033 6.4742691,3.2750914 6.3956654,3.0427872 6.3809675,3.012122 6.3151802,2.8749885 6.1940986,2.8176797 5.9282342,2.7990795 Z M 6.872662,5.2309443 c -0.00405,0.00556 -0.00422,0.00556 -0.00935,0.00847 -0.1344534,0.1033958 -0.3736957,0.1813685 -0.6685826,0.21759 -0.09429,0.011642 -0.5269278,0.021167 -0.6210472,0.014023 -0.362104,-0.02839 -0.6360512,-0.09861 -0.8041661,-0.2076979 -0.010676,-0.00714 -0.011028,-0.010054 -0.019481,-0.016669 -0.00559,0.019579 -0.035063,0.1135327 -0.035063,0.1148556 0,0.00661 0.02436,0.02839 0.054544,0.047863 0.1681149,0.1090877 0.4420626,0.1795991 0.8041661,0.2077243 0.09412,0.00714 0.5267568,0 0.6210472,-0.014023 0.2948874,-0.036195 0.5341297,-0.1142206 0.6685801,-0.2176198 0.040575,-0.031168 0.04506,-0.037835 0.041299,-0.05633 -5.556e-4,0 -0.027113,-0.082259 -0.031952,-0.09816 z M 7.6417629,7.7617367 C 7.6129289,7.8330949 7.5494974,7.9318638 7.4734493,8.0021636 7.1973047,8.2574601 6.7244527,8.4023724 6.0607037,8.4358951 5.5349454,8.4625915 5.0136897,8.4112888 4.6479581,8.2966449 4.2905983,8.1848319 4.034225,7.9889344 3.9552217,7.7716586 l -0.024155,0.080619 0.016363,0.051779 C 4.0201247,8.1269945 4.2828193,8.3284747 4.6479583,8.4427218 5.0136895,8.557207 5.5349451,8.6085362 6.0607039,8.581972 6.7244533,8.548582 7.1973044,8.4035635 7.473449,8.148267 7.569572,8.059446 7.6674777,7.9095599 7.6674777,7.850796 c 0,0 -0.022074,-0.075433 -0.025709,-0.089059 z"
         id="path84" />
    </g>
  </g>
</svg>
